# xmcd
#
# Track frame offsets:
#	150
#	13568
#	30390
#	45626
#	59236
#	76182
#	89311
#	104515
#	118207
#	132507
#	146901
#	159367
#	171562
#	184388
#
# Disc length: 2621 seconds
#
# Revision: 0
# Processed by: cddbd v1.5.2PL0 Copyright (c) Steve Scherf et al.
# Submitted via: EasyCDDAExtractor 8.0.1.1
#
DISCID=c90a3b0e
DTITLE=Coastline Band - Sweet 'N' Ripe
DYEAR=2005
DGENRE=Blues
TTITLE0=Take That Picture
TTITLE1=Chesapeake Bay
TTITLE2=Sweet Mama Do Right
TTITLE3=Tears Tears and More Tears
TTITLE4=Old Flames
TTITLE5=You Only Love Me (When It Rains)
TTITLE6=I've got To Do a Little Bit Better
TTITLE7=Turn Myself In
TTITLE8=Hold It Down
TTITLE9=Play Something Sweet
TTITLE10=How You Gonna Know
TTITLE11=I'm Nervous
TTITLE12=Love Don't Love Nobody
TTITLE13=Rainy Season
EXTD=
EXTT0=
EXTT1=
EXTT2=
EXTT3=
EXTT4=
EXTT5=
EXTT6=
EXTT7=
EXTT8=
EXTT9=
EXTT10=
EXTT11=
EXTT12=
EXTT13=
PLAYORDER=
